<?xml version="1.0" encoding="UTF-8"?>
<svg xmlns="http://www.w3.org/2000/svg" xmlns:xlink="http://www.w3.org/1999/xlink" width="150pt" height="150pt" viewBox="0 0 150 150" version="1.1">
<g id="surface13233137">
<path style=" stroke:none; fill-rule:nonzero;fill:#c3c3c3;fill-opacity:1;" d="M 20.003906 12 C 15.621094 12 12 15.621094 12 20.003906 L 12 129.996094 C 12 134.378906 15.621094 138 20.003906 138 L 129.996094 138 C 134.378906 138 138 134.390625 138 129.996094 L 138 20.003906 C 138 15.621094 134.390625 12 129.996094 12 Z M 20.003906 18 L 129.996094 18 C 131.109375 18 132 18.890625 132 20.003906 L 132 129.996094 C 132 131.109375 131.109375 132 129.996094 132 L 20.003906 132 C 18.890625 132 18 131.109375 18 129.996094 L 18 20.003906 C 18 18.890625 18.890625 18 20.003906 18 Z M 69 69 L 69 106.722656 C 69 112.511719 66.808594 114 63 114 C 59.015625 114 56.25 111.515625 54.421875 108.292969 L 45 114 C 47.730469 119.777344 54.421875 126 63.703125 126 C 73.96875 126 81 120.539062 81 108.550781 L 81 69 Z M 106.359375 69 C 96.140625 69 89.589844 75.539062 89.589844 84.128906 C 89.589844 93.445312 95.085938 97.851562 103.347656 101.367188 L 106.207031 102.597656 C 111.421875 104.882812 114 106.277344 114 110.203125 C 114 113.472656 111.515625 115.839844 106.769531 115.839844 C 101.121094 115.839844 98.449219 112.007812 96 108 L 87 114 C 90.363281 120.644531 96.398438 126 107.027344 126 C 117.902344 126 126 120.351562 126 110.050781 C 126 100.488281 120.515625 96.234375 110.777344 92.0625 L 107.917969 90.84375 C 103.007812 88.710938 100.875 87.328125 100.875 83.894531 C 100.875 81.117188 103.007812 78.984375 106.359375 78.984375 C 109.652344 78.984375 111.761719 80.378906 113.71875 83.894531 L 122.636719 78.175781 C 118.875 71.53125 113.636719 69 106.359375 69 Z M 106.359375 69 "/>
</g>
</svg>
