<svg width="300" height="300" viewBox="0 0 300 300" fill="none" xmlns="http://www.w3.org/2000/svg">
<path d="M150 295C230.081 295 295 230.081 295 150C295 69.9187 230.081 5 150 5C69.9187 5 5 69.9187 5 150C5 230.081 69.9187 295 150 295Z" stroke="white" stroke-opacity="0.07" stroke-width="10"/>
<path d="M150 240C199.706 240 240 199.706 240 150C240 100.294 199.706 60 150 60C100.294 60 60 100.294 60 150C60 199.706 100.294 240 150 240Z" stroke="#FDFCFB" stroke-opacity="0.94" stroke-width="4"/>
<path d="M60 170C71.0457 170 80 161.046 80 150C80 138.954 71.0457 130 60 130C48.9543 130 40 138.954 40 150C40 161.046 48.9543 170 60 170Z" fill="white"/>
<path d="M60 170L59.4 152.9C43.9 152.9 28.7 154.1 18.8 133.3C22.4 156 32.8 170 60 170Z" fill="white"/>
<path d="M215.58 213.543C211.441 203.302 199.784 198.355 189.543 202.494C179.302 206.632 174.355 218.289 178.494 228.53C182.632 238.771 194.289 243.718 204.53 239.58C214.771 235.441 219.718 223.784 215.58 213.543Z" fill="white"/>
<path d="M215.58 213.543L199.95 220.506C205.758 234.877 212.566 248.52 196.99 265.493C216.688 253.65 225.771 238.762 215.58 213.543Z" fill="white"/>
<path d="M170.12 57.8371C163.906 66.9694 166.273 79.4097 175.405 85.6232C184.537 91.8368 196.977 89.4707 203.191 80.3384C209.405 71.2061 207.038 58.7658 197.906 52.5523C188.774 46.3387 176.334 48.7048 170.12 57.8371Z" fill="#FCFCFC"/>
<path d="M170.12 57.8371L184.595 66.9603C193.315 54.1453 200.873 40.9033 223.639 44.419C202.846 34.6258 185.421 35.3488 170.12 57.8371Z" fill="#FCFCFC"/>
<path d="M150 175C163.807 175 175 163.807 175 150C175 136.193 163.807 125 150 125C136.193 125 125 136.193 125 150C125 163.807 136.193 175 150 175Z" fill="white"/>
</svg>
