<svg fill="#c3c3c3" xmlns="http://www.w3.org/2000/svg" viewBox="0 0 64 64" width="128px" height="128px"><path fill="none" stroke="#c3c3c3" stroke-miterlimit="10" d="M32 14A31 18.174 0 1 0 32 50.348A31 18.174 0 1 0 32 14Z"/><path d="M42.435 26.435l-2.733 14.826h3.566l.71-4.043h2.219c4.645 0 7.172-1.076 8.117-5.062.813-3.425-1.264-5.72-4.69-5.72H42.435zM46.786 34.522h-2.305l1.018-5.391h2.778c2.302 0 2.786 1.038 2.666 2.193C50.634 34.297 48.78 34.522 46.786 34.522zM14.13 26.435l-2.733 14.826h3.566l.71-4.043h2.219c4.645 0 7.172-1.076 8.117-5.062.813-3.425-1.264-5.72-4.69-5.72H14.13zM18.481 34.522h-2.305l1.018-5.391h2.778c2.302 0 2.786 1.038 2.666 2.193C22.329 34.297 20.476 34.522 18.481 34.522zM39.311 27.415c-.762-.698-2.104-.98-4.105-.98h-3.153l1.124-5.391H29.64l-3.379 16.174h3.538l1.706-8.087h2.828c.902 0 1.497.151 1.775.449.276.301.337.867.177 1.686l-1.291 5.952h3.593l1.399-6.44C40.286 29.234 40.059 28.102 39.311 27.415z"/><path fill="none" stroke="#c3c3c3" stroke-miterlimit="10" stroke-width="2" d="M32 14A31 18.174 0 1 0 32 50.348A31 18.174 0 1 0 32 14Z"/><path fill="#c3c3c3" stroke="#c3c3c3" stroke-linecap="round" stroke-miterlimit="10" stroke-width="2" d="M58.693 49.667L57.618 47.98M54.446 52.004L53.592 50.195M49.969 53.817L49.315 51.927M45.344 55.171L44.875 53.227M40.622 56.093L40.327 54.114M35.841 56.595L35.712 54.599M21.863 20.161c1.276-.317 2.652-.597 4.137-.828M7 29c0 0 2.486-4.558 10.89-7.631"/></svg>