<?xml version="1.0" encoding="UTF-8"?>
<svg xmlns="http://www.w3.org/2000/svg" xmlns:xlink="http://www.w3.org/1999/xlink" width="128pt" height="128pt" viewBox="0 0 128 128" version="1.1">
<g id="surface14403539">
<path style=" stroke:none;fill-rule:nonzero;fill:#c3c3c3;fill-opacity:1;" d="M 64 12 C 35.3125 12 12 35.3125 12 64 C 12 92.6875 35.3125 116 64 116 C 92.6875 116 116 92.6875 116 64 C 116 35.3125 92.6875 12 64 12 Z M 64 20.671875 C 75.300781 20.671875 85.527344 24.988281 93.226562 32.023438 C 93.0625 32.019531 92.894531 31.976562 92.6875 31.976562 C 88.441406 31.976562 85.671875 35.699219 85.671875 39.6875 C 85.671875 43.285156 87.484375 46.277344 89.695312 49.875 C 91.339844 52.734375 93.25 56.460938 93.25 61.789062 C 93.25 65.515625 91.859375 69.804688 89.953125 75.828125 L 85.671875 90.257812 L 69.40625 40.148438 C 72.007812 40.015625 74.34375 39.757812 74.34375 39.757812 C 76.683594 39.496094 76.425781 36.03125 74.085938 36.164062 C 74.085938 36.164062 67.066406 36.726562 62.515625 36.726562 C 58.273438 36.726562 51.117188 36.164062 51.117188 36.164062 C 48.777344 36.03125 48.519531 39.628906 50.859375 39.757812 C 50.859375 39.757812 53.066406 40.015625 55.40625 40.148438 L 62.703125 62.179688 L 53.25 90.609375 L 36.859375 40.15625 C 39.503906 40.023438 41.84375 39.765625 41.84375 39.765625 C 44.183594 39.503906 43.882812 36.039062 41.585938 36.171875 C 41.585938 36.171875 34.859375 36.707031 30.304688 36.726562 C 38.234375 26.925781 50.351562 20.671875 64 20.671875 Z M 102.046875 43.203125 C 105.414062 49.371094 107.328125 56.449219 107.328125 64 C 107.328125 81.15625 97.433594 95.878906 83.039062 102.90625 C 83.972656 102.445312 84.902344 101.984375 85.796875 101.4375 L 99.015625 63.179688 C 101.484375 57.027344 102.304688 52.085938 102.304688 47.664062 C 102.304688 46.058594 102.222656 44.625 102.054688 43.242188 C 102.046875 43.230469 102.050781 43.214844 102.046875 43.203125 Z M 24.8125 45.539062 L 45.0625 102.960938 C 30.609375 95.953125 20.671875 81.199219 20.671875 64 C 20.671875 57.378906 22.179688 51.140625 24.8125 45.539062 Z M 64.734375 67.773438 L 78.085938 104.296875 C 78.171875 104.507812 78.257812 104.683594 78.382812 104.851562 C 73.878906 106.429688 69.054688 107.328125 64 107.328125 C 59.734375 107.328125 55.625 106.695312 51.734375 105.554688 Z M 45.585938 103.210938 C 46.710938 103.726562 47.847656 104.191406 49 104.632812 C 47.835938 104.207031 46.699219 103.734375 45.585938 103.210938 Z M 81.664062 103.570312 C 80.75 103.976562 79.8125 104.335938 78.867188 104.679688 C 79.816406 104.347656 80.75 103.972656 81.664062 103.570312 Z M 50.242188 105.085938 C 50.707031 105.238281 51.164062 105.390625 51.640625 105.53125 C 51.167969 105.390625 50.707031 105.242188 50.242188 105.085938 Z M 50.242188 105.085938 "/>
</g>
</svg>
